# xmcd
#
# Track frame offsets:
#	150
#	21443
#	36605
#	53771
#	69011
#	84059
#	100143
#	117808
#	133943
#	149947
#	166284
#	180857
#
# Disc length: 2638 seconds
#
# Revision: 0
# Processed by: cddbd v1.5.2PL0 Copyright (c) Steve Scherf et al.
# Submitted via: dBpowerAMP V4.0
#
DISCID=a00a4c0c
DTITLE=Pier Cortese - Contraddizione
DYEAR=2006
DGENRE=pop
TTITLE0=Il Clown
TTITLE1=Prima che cambierà
TTITLE2=Non capirò mai
TTITLE3=Io pago
TTITLE4=Contraddizioni
TTITLE5=Souvenir
TTITLE6=Donne di paese
TTITLE7=Dimmi come passi le notti
TTITLE8=Ho deciso di stare bene
TTITLE9=Il basilico
TTITLE10=La canzone silenziosa
TTITLE11=Sentimento maleducato
EXTD=
EXTT0=
EXTT1=
EXTT2=
EXTT3=
EXTT4=
EXTT5=
EXTT6=
EXTT7=
EXTT8=
EXTT9=
EXTT10=
EXTT11=
PLAYORDER=
